<?xml version="1.0" encoding="UTF-8" standalone="no"?>
<!DOCTYPE svg PUBLIC "-//W3C//DTD SVG 1.1//EN" "http://www.w3.org/Graphics/SVG/1.1/DTD/svg11.dtd">
<svg width="100%" height="100%" viewBox="0 0 1182 1182" version="1.1" xmlns="http://www.w3.org/2000/svg" xmlns:xlink="http://www.w3.org/1999/xlink" xml:space="preserve" xmlns:serif="http://www.serif.com/" style="fill-rule:evenodd;clip-rule:evenodd;stroke-linejoin:round;stroke-miterlimit:2;">
    <g transform="matrix(1538.81,0,0,1538.81,20.6874,1102.34)">
        <path d="M0.46,-0.44C0.448,-0.451 0.433,-0.459 0.415,-0.465C0.397,-0.47 0.379,-0.473 0.362,-0.473C0.343,-0.473 0.325,-0.47 0.309,-0.463C0.293,-0.456 0.279,-0.446 0.268,-0.434C0.256,-0.421 0.247,-0.406 0.24,-0.389C0.233,-0.372 0.23,-0.353 0.23,-0.333C0.23,-0.313 0.234,-0.294 0.241,-0.277C0.248,-0.26 0.258,-0.245 0.271,-0.233C0.284,-0.22 0.299,-0.211 0.316,-0.204C0.333,-0.197 0.351,-0.193 0.37,-0.193C0.393,-0.193 0.413,-0.198 0.432,-0.208C0.451,-0.217 0.467,-0.23 0.48,-0.247L0.42,-0.247L0.42,-0.387L0.677,-0.387L0.677,-0.165C0.662,-0.138 0.643,-0.113 0.622,-0.091C0.601,-0.068 0.577,-0.049 0.551,-0.033C0.524,-0.017 0.496,-0.005 0.465,0.004C0.434,0.013 0.403,0.017 0.37,0.017C0.322,0.017 0.277,0.008 0.234,-0.01C0.191,-0.028 0.154,-0.053 0.123,-0.084C0.091,-0.115 0.066,-0.152 0.048,-0.195C0.029,-0.238 0.02,-0.284 0.02,-0.333C0.02,-0.381 0.029,-0.426 0.046,-0.469C0.063,-0.512 0.087,-0.549 0.118,-0.581C0.148,-0.612 0.184,-0.637 0.226,-0.656C0.267,-0.674 0.312,-0.683 0.36,-0.683C0.397,-0.683 0.43,-0.679 0.457,-0.672C0.484,-0.665 0.507,-0.656 0.526,-0.647C0.548,-0.636 0.566,-0.625 0.581,-0.612L0.46,-0.44ZM0.47,-0.569C0.461,-0.573 0.452,-0.576 0.441,-0.579C0.432,-0.582 0.421,-0.584 0.408,-0.586C0.395,-0.588 0.381,-0.589 0.366,-0.589C0.331,-0.589 0.298,-0.583 0.267,-0.57C0.236,-0.557 0.21,-0.54 0.187,-0.518C0.164,-0.495 0.147,-0.468 0.134,-0.437C0.121,-0.406 0.114,-0.371 0.114,-0.333C0.114,-0.295 0.121,-0.26 0.134,-0.229C0.147,-0.198 0.166,-0.171 0.189,-0.149C0.212,-0.126 0.24,-0.109 0.271,-0.096C0.302,-0.083 0.335,-0.077 0.37,-0.077C0.416,-0.077 0.458,-0.088 0.495,-0.11C0.532,-0.131 0.563,-0.16 0.586,-0.196L0.586,-0.327L0.48,-0.327L0.48,-0.303L0.56,-0.303L0.56,-0.203C0.539,-0.172 0.513,-0.148 0.48,-0.13C0.447,-0.112 0.41,-0.103 0.37,-0.103C0.338,-0.103 0.308,-0.109 0.281,-0.12C0.253,-0.131 0.229,-0.146 0.208,-0.167C0.187,-0.187 0.17,-0.211 0.158,-0.24C0.146,-0.268 0.14,-0.299 0.14,-0.333C0.14,-0.367 0.146,-0.398 0.158,-0.427C0.169,-0.455 0.185,-0.479 0.206,-0.5C0.226,-0.52 0.25,-0.536 0.277,-0.547C0.304,-0.558 0.334,-0.563 0.366,-0.563C0.378,-0.563 0.389,-0.562 0.4,-0.56C0.411,-0.558 0.42,-0.556 0.428,-0.554C0.437,-0.551 0.446,-0.549 0.454,-0.546L0.47,-0.569Z" style="fill:rgb(255,124,164);fill-rule:nonzero;"/>
    </g>
</svg>
